<svg width="32" height="32" viewBox="0 0 32 32" fill="none" xmlns="http://www.w3.org/2000/svg">
<path d="M2.3335 26.6667C2.04461 26.6667 1.80572 26.5723 1.61683 26.3834C1.42794 26.1945 1.3335 25.9556 1.3335 25.6667V21.3334C1.3335 20.6889 1.56127 20.1389 2.01683 19.6834C2.47239 19.2278 3.02239 19 3.66683 19H8.36683C8.74461 19 9.10572 19.0945 9.45016 19.2834C9.79461 19.4723 10.0891 19.7334 10.3335 20.0667C10.9779 21 11.8002 21.7223 12.8002 22.2334C13.8002 22.7445 14.8668 23 16.0002 23C17.1335 23 18.2002 22.7445 19.2002 22.2334C20.2002 21.7223 21.0335 21 21.7002 20.0667C21.9446 19.7334 22.2335 19.4723 22.5668 19.2834C22.9002 19.0945 23.2557 19 23.6335 19H28.3335C28.9779 19 29.5279 19.2278 29.9835 19.6834C30.4391 20.1389 30.6668 20.6889 30.6668 21.3334V25.6667C30.6668 25.9556 30.5724 26.1945 30.3835 26.3834C30.1946 26.5723 29.9557 26.6667 29.6668 26.6667H23.0002C22.7113 26.6667 22.4724 26.5723 22.2835 26.3834C22.0946 26.1945 22.0002 25.9556 22.0002 25.6667V22.7C21.2002 23.4334 20.2835 24 19.2502 24.4C18.2168 24.8 17.1335 25 16.0002 25C14.8668 25 13.7891 24.8 12.7668 24.4C11.7446 24 10.8224 23.4334 10.0002 22.7V25.6667C10.0002 25.9556 9.90572 26.1945 9.71683 26.3834C9.52794 26.5723 9.28905 26.6667 9.00016 26.6667H2.3335ZM16.0002 21C15.2224 21 14.4724 20.8167 13.7502 20.45C13.0279 20.0834 12.4446 19.5778 12.0002 18.9334C11.6446 18.4223 11.2168 18.0112 10.7168 17.7C10.2168 17.3889 9.67794 17.1778 9.10016 17.0667C9.74461 16.4 10.7557 15.8889 12.1335 15.5334C13.5113 15.1778 14.8002 15 16.0002 15C17.2002 15 18.4946 15.1778 19.8835 15.5334C21.2724 15.8889 22.2891 16.4 22.9335 17.0667C22.3557 17.1778 21.8168 17.3889 21.3168 17.7C20.8168 18.0112 20.3891 18.4223 20.0335 18.9334C19.5891 19.5778 19.0057 20.0834 18.2835 20.45C17.5613 20.8167 16.8002 21 16.0002 21ZM5.3335 16.6667C4.31127 16.6667 3.44461 16.3112 2.7335 15.6C2.02238 14.8889 1.66683 14.0223 1.66683 13C1.66683 11.9778 2.02238 11.1112 2.7335 10.4C3.44461 9.68893 4.31127 9.33337 5.3335 9.33337C6.35572 9.33337 7.22238 9.68893 7.9335 10.4C8.64461 11.1112 9.00016 11.9778 9.00016 13C9.00016 14.0223 8.64461 14.8889 7.9335 15.6C7.22238 16.3112 6.35572 16.6667 5.3335 16.6667ZM26.6668 16.6667C25.6446 16.6667 24.7779 16.3112 24.0668 15.6C23.3557 14.8889 23.0002 14.0223 23.0002 13C23.0002 11.9778 23.3557 11.1112 24.0668 10.4C24.7779 9.68893 25.6446 9.33337 26.6668 9.33337C27.6891 9.33337 28.5557 9.68893 29.2668 10.4C29.9779 11.1112 30.3335 11.9778 30.3335 13C30.3335 14.0223 29.9779 14.8889 29.2668 15.6C28.5557 16.3112 27.6891 16.6667 26.6668 16.6667ZM16.0002 12.6667C14.9779 12.6667 14.1113 12.3112 13.4002 11.6C12.6891 10.8889 12.3335 10.0223 12.3335 9.00004C12.3335 7.97782 12.6891 7.11115 13.4002 6.40004C14.1113 5.68893 14.9779 5.33337 16.0002 5.33337C17.0224 5.33337 17.8891 5.68893 18.6002 6.40004C19.3113 7.11115 19.6668 7.97782 19.6668 9.00004C19.6668 10.0223 19.3113 10.8889 18.6002 11.6C17.8891 12.3112 17.0224 12.6667 16.0002 12.6667Z" fill="url(#paint0_linear_25_135)"/>
<defs>
<linearGradient id="paint0_linear_25_135" x1="16.0002" y1="5.33337" x2="16.0002" y2="26.6667" gradientUnits="userSpaceOnUse">
<stop stop-color="#F2FC07"/>
<stop offset="1" stop-color="#FEC80B"/>
</linearGradient>
</defs>
</svg>
