<svg width="48" height="48" viewBox="0 0 48 48" fill="none" xmlns="http://www.w3.org/2000/svg">
<path d="M26.5001 10.3C25.5001 10.3 24.6418 9.94167 23.9251 9.225C23.2084 8.50833 22.8501 7.65 22.8501 6.65C22.8501 5.65 23.2084 4.79167 23.9251 4.075C24.6418 3.35833 25.5001 3 26.5001 3C27.5001 3 28.3584 3.35833 29.0751 4.075C29.7918 4.79167 30.1501 5.65 30.1501 6.65C30.1501 7.65 29.7918 8.50833 29.0751 9.225C28.3584 9.94167 27.5001 10.3 26.5001 10.3ZM16.0501 46C15.5168 46 15.0918 45.8167 14.7751 45.45C14.4584 45.0833 14.3501 44.6333 14.4501 44.1L20.1501 15C20.3168 14.2 20.7001 13.5833 21.3001 13.15C21.9001 12.7167 22.5334 12.5 23.2001 12.5C23.8668 12.5 24.4918 12.65 25.0751 12.95C25.6584 13.25 26.1334 13.6833 26.5001 14.25L28.4501 17.45C29.0834 18.5167 29.9584 19.4667 31.0751 20.3C32.1918 21.1333 33.5001 21.7833 35.0001 22.25V19.5C35.0001 19.2333 35.1001 19 35.3001 18.8C35.5001 18.6 35.7334 18.5 36.0001 18.5C36.2668 18.5 36.5001 18.6 36.7001 18.8C36.9001 19 37.0001 19.2333 37.0001 19.5V45C37.0001 45.2667 36.9001 45.5 36.7001 45.7C36.5001 45.9 36.2668 46 36.0001 46C35.7334 46 35.5001 45.9 35.3001 45.7C35.1001 45.5 35.0001 45.2667 35.0001 45V25.3C33.3001 24.9333 31.7001 24.2833 30.2001 23.35C28.7001 22.4167 27.3668 21.2667 26.2001 19.9L24.7501 27.15L28.0501 30.3C28.3501 30.5667 28.5834 30.8917 28.7501 31.275C28.9168 31.6583 29.0001 32.0667 29.0001 32.5V44.5C29.0001 44.9333 28.8584 45.2917 28.5751 45.575C28.2918 45.8583 27.9334 46 27.5001 46C27.0668 46 26.7084 45.8583 26.4251 45.575C26.1418 45.2917 26.0001 44.9333 26.0001 44.5V33.8L21.0001 29.05L17.5501 44.8C17.4834 45.1333 17.3084 45.4167 17.0251 45.65C16.7418 45.8833 16.4168 46 16.0501 46ZM14.9501 25.85L17.4501 13.15L15.6501 12.8C14.6834 12.6333 13.8001 12.8083 13.0001 13.325C12.2001 13.8417 11.7168 14.5833 11.5501 15.55L10.0501 23.4C9.98344 23.7667 10.0751 24.1333 10.3251 24.5C10.5751 24.8667 10.8668 25.0833 11.2001 25.15L14.9501 25.85Z" fill="url(#paint0_linear_77_96)"/>
<defs>
<linearGradient id="paint0_linear_77_96" x1="23.5146" y1="3" x2="23.5146" y2="46" gradientUnits="userSpaceOnUse">
<stop stop-color="#F2FC07"/>
<stop offset="1" stop-color="#FEC80B"/>
</linearGradient>
</defs>
</svg>
