<svg width="40" height="39" viewBox="0 0 40 39" fill="none" xmlns="http://www.w3.org/2000/svg">
<g clip-path="url(#clip0_28_264)">
<path d="M20 0C14.5666 0 13.8884 0.024375 11.755 0.117C9.625 0.2145 8.175 0.541125 6.9 1.02375C5.585 1.521 4.46834 2.18887 3.35666 3.27275C2.245 4.35663 1.55834 5.44375 1.05 6.7275C0.555 7.97062 0.218334 9.38438 0.12 11.4611C0.02 13.5412 0 14.2025 0 19.5C0 24.7975 0.025 25.4588 0.12 27.5389C0.22 29.614 0.555 31.0294 1.05 32.2725C1.56 33.553 2.245 34.6433 3.35666 35.7273C4.46834 36.8095 5.58334 37.4806 6.9 37.9762C8.17666 38.4573 9.62666 38.7871 11.755 38.883C13.8884 38.9805 14.5666 39 20 39C25.4334 39 26.1116 38.9756 28.245 38.883C30.3734 38.7855 31.825 38.4573 33.1 37.9762C34.4134 37.479 35.5316 36.8095 36.6434 35.7273C37.7534 34.6433 38.4416 33.5579 38.95 32.2725C39.4434 31.0294 39.7816 29.614 39.88 27.5389C39.98 25.4588 40 24.7975 40 19.5C40 14.2025 39.975 13.5412 39.88 11.4611C39.78 9.386 39.4434 7.969 38.95 6.7275C38.44 5.44537 37.7534 4.35663 36.6434 3.27275C35.5316 2.18887 34.4184 1.51938 33.1 1.02375C31.825 0.541125 30.3734 0.212875 28.245 0.117C26.1116 0.0195 25.4334 0 20 0ZM20 3.51C25.3384 3.51 25.975 3.536 28.0834 3.62538C30.0334 3.71475 31.0916 4.03 31.795 4.29975C32.7316 4.65237 33.395 5.07487 34.0984 5.75575C34.7966 6.43825 35.23 7.08663 35.5916 7.99988C35.865 8.68563 36.1916 9.7175 36.28 11.6187C36.375 13.676 36.3966 14.2935 36.3966 19.5C36.3966 24.7065 36.3716 25.3256 36.2734 27.3813C36.1716 29.2825 35.8466 30.3143 35.5716 31.0001C35.1984 31.9133 34.7734 32.5601 34.0734 33.2459C33.375 33.9267 32.7 34.3493 31.7734 34.7018C31.0734 34.9684 29.9984 35.2868 28.0484 35.373C25.925 35.4656 25.3 35.4867 19.95 35.4867C14.5984 35.4867 13.9734 35.4623 11.8517 35.3665C9.9 35.2673 8.825 34.9505 8.125 34.6823C7.17666 34.3184 6.525 33.904 5.82666 33.2215C5.125 32.5406 4.67666 31.8825 4.32666 30.979C4.05166 30.2965 3.72834 29.2484 3.62666 27.3472C3.55166 25.2997 3.525 24.6675 3.525 19.4756C3.525 14.2822 3.55166 13.6484 3.62666 11.5765C3.72834 9.67525 4.05166 8.62875 4.32666 7.94625C4.67666 7.02 5.125 6.38625 5.82666 5.70213C6.525 5.02125 7.17666 4.5825 8.125 4.24287C8.825 3.97312 9.87666 3.65625 11.8267 3.55875C13.9516 3.48563 14.5766 3.46125 19.925 3.46125L20 3.51ZM20 9.48675C14.325 9.48675 9.73 13.9718 9.73 19.5C9.73 25.0331 14.33 29.5133 20 29.5133C25.675 29.5133 30.27 25.0282 30.27 19.5C30.27 13.9669 25.67 9.48675 20 9.48675ZM20 26C16.3166 26 13.3334 23.0913 13.3334 19.5C13.3334 15.9087 16.3166 13 20 13C23.6834 13 26.6666 15.9087 26.6666 19.5C26.6666 23.0913 23.6834 26 20 26ZM33.0766 9.09188C33.0766 10.3837 32 11.4319 30.6766 11.4319C29.3516 11.4319 28.2766 10.3821 28.2766 9.09188C28.2766 7.80162 29.3534 6.7535 30.6766 6.7535C31.9984 6.75187 33.0766 7.80162 33.0766 9.09188Z" fill="url(#paint0_linear_28_264)"/>
</g>
<defs>
<linearGradient id="paint0_linear_28_264" x1="20" y1="0" x2="20" y2="39" gradientUnits="userSpaceOnUse">
<stop stop-color="#F2FC07"/>
<stop offset="1" stop-color="#FEC80B"/>
</linearGradient>
<clipPath id="clip0_28_264">
<rect width="40" height="39" fill="white"/>
</clipPath>
</defs>
</svg>
