<svg width="32" height="32" viewBox="0 0 32 32" fill="none" xmlns="http://www.w3.org/2000/svg">
<path d="M14.3667 27.5332H6C5.46667 27.5332 5 27.3332 4.6 26.9332C4.2 26.5332 4 26.0666 4 25.5332V6.13322C4 5.59989 4.17222 5.13322 4.51667 4.73322C4.86111 4.33322 5.15556 4.13322 5.4 4.13322H12.1333C12.2889 3.35544 12.6722 2.71655 13.2833 2.21655C13.8944 1.71655 14.6 1.46655 15.4 1.46655C16.2 1.46655 16.9056 1.71655 17.5167 2.21655C18.1278 2.71655 18.5111 3.35544 18.6667 4.13322H25.4C25.9333 4.13322 26.4 4.33322 26.8 4.73322C27.2 5.13322 27.4 5.59989 27.4 6.13322V12.8999H25.4V6.13322H21.8667V8.46655C21.8667 9.02211 21.6722 9.49433 21.2833 9.88322C20.8944 10.2721 20.4222 10.4666 19.8667 10.4666H11.5333C10.9778 10.4666 10.5056 10.2721 10.1167 9.88322C9.72778 9.49433 9.53333 9.02211 9.53333 8.46655V6.13322H6V25.5332H14.3667V27.5332ZM20.6667 23.8332L27.9333 16.5666C28.1333 16.3666 28.3667 16.2721 28.6333 16.2832C28.9 16.2943 29.1333 16.3999 29.3333 16.5999C29.5333 16.7999 29.6333 17.0388 29.6333 17.3166C29.6333 17.5943 29.5333 17.8332 29.3333 18.0332L21.3667 25.9999C21.1667 26.1999 20.9333 26.2999 20.6667 26.2999C20.4 26.2999 20.1667 26.1999 19.9667 25.9999L16.0333 22.0666C15.8333 21.8666 15.7389 21.6277 15.75 21.3499C15.7611 21.0721 15.8667 20.8332 16.0667 20.6332C16.2667 20.4332 16.5056 20.3332 16.7833 20.3332C17.0611 20.3332 17.3 20.4332 17.5 20.6332L20.6667 23.8332ZM16 5.99989C16.3778 5.99989 16.6944 5.87211 16.95 5.61655C17.2056 5.361 17.3333 5.04433 17.3333 4.66655C17.3333 4.28878 17.2056 3.97211 16.95 3.71655C16.6944 3.461 16.3778 3.33322 16 3.33322C15.6222 3.33322 15.3056 3.461 15.05 3.71655C14.7944 3.97211 14.6667 4.28878 14.6667 4.66655C14.6667 5.04433 14.7944 5.361 15.05 5.61655C15.3056 5.87211 15.6222 5.99989 16 5.99989Z" fill="url(#paint0_linear_12_83)"/>
<defs>
<linearGradient id="paint0_linear_12_83" x1="16.8167" y1="1.46655" x2="16.8167" y2="27.5332" gradientUnits="userSpaceOnUse">
<stop stop-color="#F2FC07"/>
<stop offset="1" stop-color="#FEC80B"/>
</linearGradient>
</defs>
</svg>
