<svg width="48" height="48" viewBox="0 0 48 48" fill="none" xmlns="http://www.w3.org/2000/svg">
<path d="M14 34C11.1667 34 8.79167 33.0417 6.875 31.125C4.95833 29.2083 4 26.8333 4 24C4 21.1667 4.95833 18.7917 6.875 16.875C8.79167 14.9583 11.1667 14 14 14H21C21.4333 14 21.7917 14.1417 22.075 14.425C22.3583 14.7083 22.5 15.0667 22.5 15.5C22.5 15.9333 22.3583 16.2917 22.075 16.575C21.7917 16.8583 21.4333 17 21 17H14C12 17 10.3333 17.6667 9 19C7.66667 20.3333 7 22 7 24C7 26 7.66667 27.6667 9 29C10.3333 30.3333 12 31 14 31H21C21.4333 31 21.7917 31.1417 22.075 31.425C22.3583 31.7083 22.5 32.0667 22.5 32.5C22.5 32.9333 22.3583 33.2917 22.075 33.575C21.7917 33.8583 21.4333 34 21 34H14ZM17.75 25.5C17.3167 25.5 16.9583 25.3583 16.675 25.075C16.3917 24.7917 16.25 24.4333 16.25 24C16.25 23.5667 16.3917 23.2083 16.675 22.925C16.9583 22.6417 17.3167 22.5 17.75 22.5H30.25C30.6833 22.5 31.0417 22.6417 31.325 22.925C31.6083 23.2083 31.75 23.5667 31.75 24C31.75 24.4333 31.6083 24.7917 31.325 25.075C31.0417 25.3583 30.6833 25.5 30.25 25.5H17.75ZM27 34C26.5667 34 26.2083 33.8583 25.925 33.575C25.6417 33.2917 25.5 32.9333 25.5 32.5C25.5 32.0667 25.6417 31.7083 25.925 31.425C26.2083 31.1417 26.5667 31 27 31H34C36 31 37.6667 30.3333 39 29C40.3333 27.6667 41 26 41 24C41 22 40.3333 20.3333 39 19C37.6667 17.6667 36 17 34 17H27C26.5667 17 26.2083 16.8583 25.925 16.575C25.6417 16.2917 25.5 15.9333 25.5 15.5C25.5 15.0667 25.6417 14.7083 25.925 14.425C26.2083 14.1417 26.5667 14 27 14H34C36.8333 14 39.2083 14.9583 41.125 16.875C43.0417 18.7917 44 21.1667 44 24C44 26.8333 43.0417 29.2083 41.125 31.125C39.2083 33.0417 36.8333 34 34 34H27Z" fill="url(#paint0_linear_77_98)"/>
<defs>
<linearGradient id="paint0_linear_77_98" x1="24" y1="14" x2="24" y2="34" gradientUnits="userSpaceOnUse">
<stop stop-color="#F2FC07"/>
<stop offset="1" stop-color="#FEC80B"/>
</linearGradient>
</defs>
</svg>
