<svg width="25" height="25" viewBox="0 0 25 25" fill="none" xmlns="http://www.w3.org/2000/svg">
<path d="M12.4998 2.08374C8.12477 2.08374 4.16602 5.43749 4.16602 10.625C4.16602 13.9375 6.71852 17.8337 11.8123 22.3225C12.0048 22.4886 12.2505 22.58 12.5048 22.58C12.759 22.58 13.0048 22.4886 13.1973 22.3225C18.281 17.8337 20.8335 13.9375 20.8335 10.625C20.8335 5.43749 16.8748 2.08374 12.4998 2.08374ZM12.4998 12.5C11.3535 12.5 10.416 11.5625 10.416 10.4162C10.416 9.26999 11.3535 8.33249 12.4998 8.33249C13.646 8.33249 14.5835 9.26999 14.5835 10.4162C14.5835 11.5625 13.646 12.5 12.4998 12.5Z" fill="url(#paint0_linear_28_258)"/>
<defs>
<linearGradient id="paint0_linear_28_258" x1="12.4998" y1="2.08374" x2="12.4998" y2="22.58" gradientUnits="userSpaceOnUse">
<stop stop-color="#F2FC07"/>
<stop offset="1" stop-color="#FEC80B"/>
</linearGradient>
</defs>
</svg>
