<svg width="32" height="32" viewBox="0 0 32 32" fill="none" xmlns="http://www.w3.org/2000/svg">
<path d="M15.9667 25.5667C16.2112 25.5667 16.4223 25.4723 16.6001 25.2834C16.7779 25.0945 16.8667 24.8779 16.8667 24.6334V23.8334C18.2001 23.6779 19.2501 23.2279 20.0167 22.4834C20.7834 21.739 21.1667 20.789 21.1667 19.6334C21.1667 18.4779 20.8501 17.5556 20.2167 16.8667C19.5834 16.1779 18.489 15.5779 16.9334 15.0667C15.5334 14.6001 14.5723 14.139 14.0501 13.6834C13.5279 13.2279 13.2667 12.6334 13.2667 11.9001C13.2667 11.2112 13.5167 10.6723 14.0167 10.2834C14.5167 9.89453 15.2001 9.70008 16.0667 9.70008C16.6001 9.70008 17.0779 9.80008 17.5001 10.0001C17.9223 10.2001 18.289 10.5001 18.6001 10.9001C18.7556 11.0779 18.9445 11.2001 19.1667 11.2667C19.389 11.3334 19.6001 11.3112 19.8001 11.2001C20.0445 11.089 20.2056 10.9112 20.2834 10.6667C20.3612 10.4223 20.3223 10.2001 20.1667 10.0001C19.789 9.46675 19.3279 9.04453 18.7834 8.73341C18.239 8.4223 17.6223 8.23341 16.9334 8.16675V7.36675C16.9334 7.1223 16.8445 6.91119 16.6667 6.73341C16.489 6.55564 16.2779 6.46675 16.0334 6.46675C15.789 6.46675 15.5723 6.55564 15.3834 6.73341C15.1945 6.91119 15.1001 7.1223 15.1001 7.36675V8.16675C13.9667 8.3223 13.0723 8.73341 12.4167 9.40008C11.7612 10.0667 11.4334 10.9001 11.4334 11.9001C11.4334 12.989 11.7167 13.8556 12.2834 14.5001C12.8501 15.1445 13.9001 15.7556 15.4334 16.3334C17.0112 16.9334 18.0556 17.4556 18.5667 17.9001C19.0779 18.3445 19.3334 18.9223 19.3334 19.6334C19.3334 20.3667 19.0334 20.9834 18.4334 21.4834C17.8334 21.9834 17.1001 22.2334 16.2334 22.2334C15.5001 22.2334 14.8279 22.0556 14.2167 21.7001C13.6056 21.3445 13.1334 20.8445 12.8001 20.2001C12.689 20.0223 12.539 19.8834 12.3501 19.7834C12.1612 19.6834 11.9667 19.6667 11.7667 19.7334C11.4779 19.8445 11.2834 20.0167 11.1834 20.2501C11.0834 20.4834 11.1112 20.7223 11.2667 20.9667C11.7112 21.7001 12.239 22.2945 12.8501 22.7501C13.4612 23.2056 14.189 23.5445 15.0334 23.7667V24.6667C15.0334 24.9112 15.1279 25.1223 15.3167 25.3001C15.5056 25.4779 15.7223 25.5667 15.9667 25.5667ZM16.0001 29.3334C14.1112 29.3334 12.3556 28.9945 10.7334 28.3167C9.11119 27.639 7.70008 26.7001 6.50008 25.5001C5.30008 24.3001 4.36119 22.889 3.68341 21.2667C3.00564 19.6445 2.66675 17.889 2.66675 16.0001C2.66675 14.1334 3.00564 12.389 3.68341 10.7667C4.36119 9.14453 5.30008 7.73341 6.50008 6.53341C7.70008 5.33341 9.11119 4.38897 10.7334 3.70008C12.3556 3.01119 14.1112 2.66675 16.0001 2.66675C17.8667 2.66675 19.6112 3.01119 21.2334 3.70008C22.8556 4.38897 24.2667 5.33341 25.4667 6.53341C26.6667 7.73341 27.6112 9.14453 28.3001 10.7667C28.989 12.389 29.3334 14.1334 29.3334 16.0001C29.3334 17.889 28.989 19.6445 28.3001 21.2667C27.6112 22.889 26.6667 24.3001 25.4667 25.5001C24.2667 26.7001 22.8556 27.639 21.2334 28.3167C19.6112 28.9945 17.8667 29.3334 16.0001 29.3334ZM16.0001 27.3334C19.2223 27.3334 21.9167 26.2501 24.0834 24.0834C26.2501 21.9167 27.3334 19.2223 27.3334 16.0001C27.3334 12.7779 26.2501 10.0834 24.0834 7.91675C21.9167 5.75008 19.2223 4.66675 16.0001 4.66675C12.7779 4.66675 10.0834 5.75008 7.91675 7.91675C5.75008 10.0834 4.66675 12.7779 4.66675 16.0001C4.66675 19.2223 5.75008 21.9167 7.91675 24.0834C10.0834 26.2501 12.7779 27.3334 16.0001 27.3334Z" fill="url(#paint0_linear_10_44)"/>
<defs>
<linearGradient id="paint0_linear_10_44" x1="16.0001" y1="2.66675" x2="16.0001" y2="29.3334" gradientUnits="userSpaceOnUse">
<stop stop-color="#F2FC07"/>
<stop offset="1" stop-color="#FEC80B"/>
</linearGradient>
</defs>
</svg>
