<svg width="24" height="24" viewBox="0 0 24 24" fill="none" xmlns="http://www.w3.org/2000/svg">
<path d="M19.23 15.2604L16.6896 14.97C16.3911 14.935 16.0885 14.9681 15.8046 15.0668C15.5207 15.1656 15.2628 15.3273 15.0504 15.54L13.2096 17.3796C10.3712 15.9358 8.06414 13.6288 6.6204 10.7904L8.4696 8.93998C8.9004 8.51038 9.1104 7.91038 9.0396 7.29958L8.7504 4.77958C8.69356 4.29167 8.4593 3.8417 8.0922 3.51532C7.72511 3.18893 7.25081 3.00894 6.7596 3.00958H5.0304C3.9 3.00958 2.9604 3.95038 3.03 5.07958C3.5604 13.62 10.3896 20.4396 18.9204 20.97C20.0496 21.0396 20.9904 20.1 20.9904 18.9696V17.2404C20.9929 16.7513 20.8145 16.2786 20.4895 15.9131C20.1646 15.5476 19.716 15.3151 19.23 15.2604Z" fill="url(#paint0_linear_28_260)"/>
<defs>
<linearGradient id="paint0_linear_28_260" x1="12.0084" y1="3.00958" x2="12.0084" y2="20.9736" gradientUnits="userSpaceOnUse">
<stop stop-color="#F2FC07"/>
<stop offset="1" stop-color="#FEC80B"/>
</linearGradient>
</defs>
</svg>
