<svg width="32" height="32" viewBox="0 0 32 32" fill="none" xmlns="http://www.w3.org/2000/svg">
<path d="M13 3.33325C12.7111 3.33325 12.4722 3.23881 12.2833 3.04992C12.0944 2.86103 12 2.62214 12 2.33325C12 2.04436 12.0944 1.80547 12.2833 1.61659C12.4722 1.4277 12.7111 1.33325 13 1.33325H19C19.2889 1.33325 19.5278 1.4277 19.7167 1.61659C19.9056 1.80547 20 2.04436 20 2.33325C20 2.62214 19.9056 2.86103 19.7167 3.04992C19.5278 3.23881 19.2889 3.33325 19 3.33325H13ZM16 18.2333C16.2889 18.2333 16.5278 18.1388 16.7167 17.9499C16.9056 17.761 17 17.5221 17 17.2333V11.5666C17 11.2777 16.9056 11.0388 16.7167 10.8499C16.5278 10.661 16.2889 10.5666 16 10.5666C15.7111 10.5666 15.4722 10.661 15.2833 10.8499C15.0944 11.0388 15 11.2777 15 11.5666V17.2333C15 17.5221 15.0944 17.761 15.2833 17.9499C15.4722 18.1388 15.7111 18.2333 16 18.2333ZM16 29.2999C14.3556 29.2999 12.8056 28.9833 11.35 28.3499C9.89444 27.7166 8.62222 26.8555 7.53333 25.7666C6.44444 24.6777 5.58333 23.4055 4.95 21.9499C4.31667 20.4944 4 18.9444 4 17.2999C4 15.6555 4.31667 14.1055 4.95 12.6499C5.58333 11.1944 6.44444 9.92214 7.53333 8.83325C8.62222 7.74436 9.89444 6.88325 11.35 6.24992C12.8056 5.61659 14.3556 5.29992 16 5.29992C17.4889 5.29992 18.8889 5.54992 20.2 6.04992C21.5111 6.54992 22.6778 7.24436 23.7 8.13325L24.7333 7.09992C24.9111 6.92214 25.1333 6.83325 25.4 6.83325C25.6667 6.83325 25.9 6.93325 26.1 7.13325C26.3 7.33325 26.4 7.56659 26.4 7.83325C26.4 8.09992 26.3 8.33325 26.1 8.53325L25.1 9.53325C25.9 10.4221 26.5833 11.4999 27.15 12.7666C27.7167 14.0333 28 15.5444 28 17.2999C28 18.9444 27.6833 20.4944 27.05 21.9499C26.4167 23.4055 25.5556 24.6777 24.4667 25.7666C23.3778 26.8555 22.1056 27.7166 20.65 28.3499C19.1944 28.9833 17.6444 29.2999 16 29.2999ZM16 27.2999C18.7778 27.2999 21.1389 26.3277 23.0833 24.3833C25.0278 22.4388 26 20.0777 26 17.2999C26 14.5221 25.0278 12.161 23.0833 10.2166C21.1389 8.27214 18.7778 7.29992 16 7.29992C13.2222 7.29992 10.8611 8.27214 8.91667 10.2166C6.97222 12.161 6 14.5221 6 17.2999C6 20.0777 6.97222 22.4388 8.91667 24.3833C10.8611 26.3277 13.2222 27.2999 16 27.2999Z" fill="url(#paint0_linear_10_54)"/>
<defs>
<linearGradient id="paint0_linear_10_54" x1="16" y1="1.33325" x2="16" y2="29.2999" gradientUnits="userSpaceOnUse">
<stop stop-color="#F2FC07"/>
<stop offset="1" stop-color="#FEC80B"/>
</linearGradient>
</defs>
</svg>
