<svg width="32" height="32" viewBox="0 0 32 32" fill="none" xmlns="http://www.w3.org/2000/svg">
<path d="M3.39993 23.2666C3.19993 23.0666 3.10549 22.8332 3.1166 22.5666C3.12771 22.2999 3.22216 22.0666 3.39993 21.8666L11.6999 13.5666C11.811 13.4555 11.9222 13.3777 12.0333 13.3332C12.1444 13.2888 12.2666 13.2666 12.3999 13.2666C12.5333 13.2666 12.6555 13.2888 12.7666 13.3332C12.8777 13.3777 12.9888 13.4555 13.0999 13.5666L17.9666 18.4332L25.9999 10.3999H22.7666C22.4777 10.3999 22.2388 10.3055 22.0499 10.1166C21.861 9.92768 21.7666 9.68879 21.7666 9.3999C21.7666 9.11101 21.861 8.87212 22.0499 8.68324C22.2388 8.49435 22.4777 8.3999 22.7666 8.3999H28.3333C28.6222 8.3999 28.861 8.49435 29.0499 8.68324C29.2388 8.87212 29.3333 9.11101 29.3333 9.3999V14.9666C29.3333 15.2332 29.2388 15.4666 29.0499 15.6666C28.861 15.8666 28.6333 15.9666 28.3666 15.9666C28.0999 15.9666 27.8666 15.8666 27.6666 15.6666C27.4666 15.4666 27.3666 15.2332 27.3666 14.9666V11.8666L18.6333 20.5999C18.5222 20.711 18.411 20.7888 18.2999 20.8332C18.1888 20.8777 18.0666 20.8999 17.9333 20.8999C17.7999 20.8999 17.6777 20.8777 17.5666 20.8332C17.4555 20.7888 17.3444 20.711 17.2333 20.5999L12.3666 15.7332L4.79993 23.2999C4.62216 23.4777 4.39438 23.5666 4.1166 23.5666C3.83882 23.5666 3.59993 23.4666 3.39993 23.2666Z" fill="url(#paint0_linear_10_49)"/>
<defs>
<linearGradient id="paint0_linear_10_49" x1="16.2245" y1="8.3999" x2="16.2245" y2="23.5666" gradientUnits="userSpaceOnUse">
<stop stop-color="#F2FC07"/>
<stop offset="1" stop-color="#FEC80B"/>
</linearGradient>
</defs>
</svg>
