<svg width="32" height="32" viewBox="0 0 32 32" fill="none" xmlns="http://www.w3.org/2000/svg">
<path d="M16 20.9999C17.5778 20.9999 18.9167 20.4499 20.0167 19.3499C21.1166 18.2499 21.6667 16.911 21.6667 15.3333C21.6667 13.7555 21.1166 12.4166 20.0167 11.3166C18.9167 10.2166 17.5778 9.66659 16 9.66659C14.4222 9.66659 13.0833 10.2166 11.9833 11.3166C10.8833 12.4166 10.3333 13.7555 10.3333 15.3333C10.3333 16.911 10.8833 18.2499 11.9833 19.3499C13.0833 20.4499 14.4222 20.9999 16 20.9999ZM16 19.0666C14.9555 19.0666 14.0722 18.7055 13.35 17.9833C12.6278 17.261 12.2667 16.3777 12.2667 15.3333C12.2667 14.2888 12.6278 13.4055 13.35 12.6833C14.0722 11.961 14.9555 11.5999 16 11.5999C17.0444 11.5999 17.9278 11.961 18.65 12.6833C19.3722 13.4055 19.7333 14.2888 19.7333 15.3333C19.7333 16.3777 19.3722 17.261 18.65 17.9833C17.9278 18.7055 17.0444 19.0666 16 19.0666ZM16 25.3333C12.9333 25.3333 10.1389 24.4999 7.61665 22.8333C5.09443 21.1666 3.14443 18.9666 1.76665 16.2333C1.69998 16.1221 1.64998 15.9888 1.61665 15.8333C1.58332 15.6777 1.56665 15.511 1.56665 15.3333C1.56665 15.1555 1.58332 14.9888 1.61665 14.8333C1.64998 14.6777 1.69998 14.5444 1.76665 14.4333C3.14443 11.6999 5.09443 9.49992 7.61665 7.83325C10.1389 6.16659 12.9333 5.33325 16 5.33325C19.0667 5.33325 21.8611 6.16659 24.3833 7.83325C26.9055 9.49992 28.8555 11.6999 30.2333 14.4333C30.3 14.5444 30.35 14.6777 30.3833 14.8333C30.4167 14.9888 30.4333 15.1555 30.4333 15.3333C30.4333 15.511 30.4167 15.6777 30.3833 15.8333C30.35 15.9888 30.3 16.1221 30.2333 16.2333C28.8555 18.9666 26.9055 21.1666 24.3833 22.8333C21.8611 24.4999 19.0667 25.3333 16 25.3333ZM16 23.3333C18.6889 23.3333 21.1611 22.6055 23.4167 21.1499C25.6722 19.6944 27.3889 17.7555 28.5667 15.3333C27.3889 12.911 25.6722 10.9721 23.4167 9.51659C21.1611 8.06103 18.6889 7.33325 16 7.33325C13.3111 7.33325 10.8389 8.06103 8.58332 9.51659C6.32776 10.9721 4.59998 12.911 3.39998 15.3333C4.59998 17.7555 6.32776 19.6944 8.58332 21.1499C10.8389 22.6055 13.3111 23.3333 16 23.3333Z" fill="url(#paint0_linear_12_86)"/>
<defs>
<linearGradient id="paint0_linear_12_86" x1="16" y1="5.33325" x2="16" y2="25.3333" gradientUnits="userSpaceOnUse">
<stop stop-color="#F2FC07"/>
<stop offset="1" stop-color="#FEC80B"/>
</linearGradient>
</defs>
</svg>
