<svg width="56" height="56" viewBox="0 0 56 56" fill="none" xmlns="http://www.w3.org/2000/svg">
<path d="M48 52C48 49.7909 49.7909 48 52 48C54.2091 48 56 49.7909 56 52C56 54.2091 54.2091 56 52 56C49.7909 56 48 54.2091 48 52Z" fill="#707070" fill-opacity="0.5"/>
<path d="M48 40C48 37.7909 49.7909 36 52 36C54.2091 36 56 37.7909 56 40C56 42.2091 54.2091 44 52 44C49.7909 44 48 42.2091 48 40Z" fill="#707070" fill-opacity="0.5"/>
<path d="M48 28C48 25.7909 49.7909 24 52 24C54.2091 24 56 25.7909 56 28C56 30.2091 54.2091 32 52 32C49.7909 32 48 30.2091 48 28Z" fill="#707070" fill-opacity="0.1"/>
<path d="M48 16C48 13.7909 49.7909 12 52 12C54.2091 12 56 13.7909 56 16C56 18.2091 54.2091 20 52 20C49.7909 20 48 18.2091 48 16Z" fill="#707070" fill-opacity="0.1"/>
<path d="M48 4C48 1.79086 49.7909 0 52 0C54.2091 0 56 1.79086 56 4C56 6.20914 54.2091 8 52 8C49.7909 8 48 6.20914 48 4Z" fill="#707070" fill-opacity="0.1"/>
<path d="M36 52C36 49.7909 37.7909 48 40 48C42.2091 48 44 49.7909 44 52C44 54.2091 42.2091 56 40 56C37.7909 56 36 54.2091 36 52Z" fill="#707070" fill-opacity="0.5"/>
<path d="M36 40C36 37.7909 37.7909 36 40 36C42.2091 36 44 37.7909 44 40C44 42.2091 42.2091 44 40 44C37.7909 44 36 42.2091 36 40Z" fill="#707070" fill-opacity="0.5"/>
<path d="M36 28C36 25.7909 37.7909 24 40 24C42.2091 24 44 25.7909 44 28C44 30.2091 42.2091 32 40 32C37.7909 32 36 30.2091 36 28Z" fill="#707070" fill-opacity="0.1"/>
<path d="M36 16C36 13.7909 37.7909 12 40 12C42.2091 12 44 13.7909 44 16C44 18.2091 42.2091 20 40 20C37.7909 20 36 18.2091 36 16Z" fill="#707070" fill-opacity="0.1"/>
<path d="M36 4C36 1.79086 37.7909 0 40 0C42.2091 0 44 1.79086 44 4C44 6.20914 42.2091 8 40 8C37.7909 8 36 6.20914 36 4Z" fill="#707070" fill-opacity="0.1"/>
<path d="M24 52C24 49.7909 25.7909 48 28 48C30.2091 48 32 49.7909 32 52C32 54.2091 30.2091 56 28 56C25.7909 56 24 54.2091 24 52Z" fill="#707070" fill-opacity="0.5"/>
<path d="M24 40C24 37.7909 25.7909 36 28 36C30.2091 36 32 37.7909 32 40C32 42.2091 30.2091 44 28 44C25.7909 44 24 42.2091 24 40Z" fill="#707070" fill-opacity="0.5"/>
<path d="M24 28C24 25.7909 25.7909 24 28 24C30.2091 24 32 25.7909 32 28C32 30.2091 30.2091 32 28 32C25.7909 32 24 30.2091 24 28Z" fill="#707070" fill-opacity="0.1"/>
<path d="M24 16C24 13.7909 25.7909 12 28 12C30.2091 12 32 13.7909 32 16C32 18.2091 30.2091 20 28 20C25.7909 20 24 18.2091 24 16Z" fill="#707070" fill-opacity="0.1"/>
<path d="M24 4C24 1.79086 25.7909 0 28 0C30.2091 0 32 1.79086 32 4C32 6.20914 30.2091 8 28 8C25.7909 8 24 6.20914 24 4Z" fill="#707070" fill-opacity="0.1"/>
<path d="M12 52C12 49.7909 13.7909 48 16 48C18.2091 48 20 49.7909 20 52C20 54.2091 18.2091 56 16 56C13.7909 56 12 54.2091 12 52Z" fill="#707070" fill-opacity="0.5"/>
<path d="M12 40C12 37.7909 13.7909 36 16 36C18.2091 36 20 37.7909 20 40C20 42.2091 18.2091 44 16 44C13.7909 44 12 42.2091 12 40Z" fill="#707070" fill-opacity="0.5"/>
<path d="M12 28C12 25.7909 13.7909 24 16 24C18.2091 24 20 25.7909 20 28C20 30.2091 18.2091 32 16 32C13.7909 32 12 30.2091 12 28Z" fill="#707070" fill-opacity="0.5"/>
<path d="M12 16C12 13.7909 13.7909 12 16 12C18.2091 12 20 13.7909 20 16C20 18.2091 18.2091 20 16 20C13.7909 20 12 18.2091 12 16Z" fill="#707070" fill-opacity="0.5"/>
<path d="M12 4C12 1.79086 13.7909 0 16 0C18.2091 0 20 1.79086 20 4C20 6.20914 18.2091 8 16 8C13.7909 8 12 6.20914 12 4Z" fill="#707070" fill-opacity="0.5"/>
<path d="M0 52C0 49.7909 1.79086 48 4 48C6.20914 48 8 49.7909 8 52C8 54.2091 6.20914 56 4 56C1.79086 56 0 54.2091 0 52Z" fill="#707070" fill-opacity="0.5"/>
<path d="M0 40C0 37.7909 1.79086 36 4 36C6.20914 36 8 37.7909 8 40C8 42.2091 6.20914 44 4 44C1.79086 44 0 42.2091 0 40Z" fill="#707070" fill-opacity="0.5"/>
<path d="M0 28C0 25.7909 1.79086 24 4 24C6.20914 24 8 25.7909 8 28C8 30.2091 6.20914 32 4 32C1.79086 32 0 30.2091 0 28Z" fill="#707070" fill-opacity="0.5"/>
<path d="M0 16C0 13.7909 1.79086 12 4 12C6.20914 12 8 13.7909 8 16C8 18.2091 6.20914 20 4 20C1.79086 20 0 18.2091 0 16Z" fill="#707070" fill-opacity="0.5"/>
<path d="M0 4C0 1.79086 1.79086 0 4 0C6.20914 0 8 1.79086 8 4C8 6.20914 6.20914 8 4 8C1.79086 8 0 6.20914 0 4Z" fill="#707070" fill-opacity="0.5"/>
</svg>
